<svg xmlns="http://www.w3.org/2000/svg" version="1.1" xmlns:xlink="http://www.w3.org/1999/xlink" xmlns:svgjs="http://svgjs.com/svgjs" width="96" height="106"><svg width="96" height="106" viewBox="0 0 96 106" fill="none" xmlns="http://www.w3.org/2000/svg">
<g clip-path="url(#clip0_2_46)">
<path d="M56.632 76.2693C59.3729 73.7469 61.1018 69.7531 61.7765 64.2878V24.9379L71.6438 15.0584H50.1802L41.4514 25.6106L42.8851 26.7036C43.4755 25.4844 44.9092 24.98 47.2706 25.1481H58.5717C55.5777 27.6706 53.8067 31.1179 53.2163 35.364V64.1617L52.4995 69.9212L22.3492 22.3314L28.2106 15.0164H17.7528L8.68666 0.764648L1.56023 5.26298L8.47582 16.1935L0 25.7367L14.4637 25.6526L15.0541 26.6195C12.8191 29.184 11.3433 32.7995 10.7107 37.6341V76.942L0.885533 86.8215H22.3492L31.078 76.2693L29.6443 75.1763C29.0539 76.3955 27.6202 76.8999 25.2588 76.7318H13.9577C16.9516 74.2094 18.7227 70.762 19.3131 66.516V37.7182L19.7347 34.1027L49.1682 80.6836L44.2345 86.8635H53.0898L64.7283 105.235L71.8547 100.737L63.0415 86.8215L72.445 76.1432L56.5476 76.2273L56.632 76.2693Z" fill="black"></path>
</g>
<defs>
<clipPath id="SvgjsClipPath1000">
<rect width="96" height="104.471" fill="white" transform="translate(0 0.764648)"></rect>
</clipPath>
</defs>
</svg><style>@media (prefers-color-scheme: light) { :root { filter: none; } }
</style></svg>