<svg width="592" height="106" viewBox="0 0 592 106" fill="none" xmlns="http://www.w3.org/2000/svg">
<g clip-path="url(#clip0_2_46)">
<path d="M462.08 37.8023C464.778 40.7031 466.423 43.688 467.013 46.841L437.2 67.8612C439.899 74.2934 444.706 77.8669 451.622 78.5395C458.538 79.2542 464.357 75.2183 469.08 66.4739L470.387 68.0714C465.242 78.6656 460.013 84.7195 454.7 86.2329C449.387 87.7464 444.327 87.6623 439.604 85.9807C434.881 84.2991 431.128 81.4824 428.387 77.4465C425.646 73.4106 424.255 68.2817 424.255 62.0176C424.255 55.7536 425.815 50.3304 428.893 45.6639C431.972 40.9974 435.429 37.5921 439.182 35.448C442.935 33.2619 447.026 32.4211 451.411 32.8415C455.797 33.2619 459.339 34.9436 462.038 37.8443L462.08 37.8023ZM440.869 40.2407C438.339 40.6611 436.399 42.1325 435.008 44.6969C433.616 47.2614 433.026 50.3724 433.194 54.0299C433.363 57.6875 434.164 61.2609 435.598 64.8343L454.953 51.1712C453.098 45.8741 450.905 42.637 448.417 41.4598C445.929 40.2827 443.399 39.9043 440.869 40.2827V40.2407Z" fill="black"/>
<path d="M528.706 32.337C535.621 32.6312 540.091 35.6582 542.242 41.5018C544.35 47.3454 542.579 54.4923 536.844 62.9845L528.284 73.4525C528.537 76.1431 527.989 78.5394 526.681 80.6415C525.374 82.7435 522.844 84.9296 519.133 87.1577L518.079 86.401C519.597 83.7525 519.302 80.5994 517.236 76.9419L512.977 68.1134L506.694 75.5125C506.441 78.6235 505.429 80.9778 503.573 82.7014C501.76 84.4251 499.609 85.8965 497.248 87.1577L495.983 86.359C497.796 84.6353 497.206 81.23 494.128 76.1431L478.652 44.3185C476.333 41.9222 474.013 42.3426 471.736 45.5797L470.302 44.1083L478.104 36.9194C481.899 32.5472 484.893 32.0847 487.043 35.448L505.133 72.3595L511.459 65.1706C504.121 49.027 499.778 41.2075 498.344 41.712C496.911 42.2165 495.561 42.8471 494.296 43.5618L493.326 41.9222C497.079 38.5169 500.284 35.9945 502.899 34.3549C505.513 32.7153 507.748 33.0096 509.603 35.1537L526.639 70.3836C531.362 65.7591 533.724 61.1347 533.724 56.5523C533.724 51.9699 532.037 48.0181 528.663 44.6969C525.29 41.4177 522.212 40.3247 519.555 41.4177L516.266 44.2765L515.254 42.4687L528.621 32.2949L528.706 32.337Z" fill="black"/>
<path d="M587.066 33.0097L578.506 42.4688H560.289C556.03 45.5378 559.024 48.3125 569.229 50.7508C579.434 53.1892 585.759 55.4593 588.163 57.6034C590.566 59.7054 591.874 62.1858 592 64.9605C592.169 67.7352 591.452 70.678 589.892 73.789C588.331 76.9 585.59 80.0951 581.669 83.3322C577.747 86.5693 572.645 87.7044 566.362 86.6113C560.079 85.5603 555.271 83.5844 551.94 80.6836C548.609 77.7828 546.922 74.798 546.838 71.729C546.753 68.66 549.537 65.1287 555.145 61.2189L556.579 62.4801C554.344 63.9095 553.374 65.6752 553.711 67.6931C554.049 69.7111 556.958 72.0653 562.356 74.7139C567.753 77.3624 572.518 78.5396 576.566 78.2873C580.657 78.0351 583.018 76.8159 583.735 74.6718C584.41 72.5278 583.946 70.5939 582.344 68.9543C580.741 67.3148 577.536 65.8433 572.729 64.5821C567.922 63.3209 563.157 61.5132 558.476 59.2009C553.796 56.8887 552.024 53.3573 553.163 48.6067C554.302 43.8141 558.097 38.6432 564.591 33.0097H585.422C585.886 32.5052 586.349 31.9587 586.855 31.2861C588.078 29.6465 588.627 27.8388 588.416 25.8208C588.205 23.8449 587.362 22.3314 585.759 21.3225C584.199 20.3135 582.259 19.9772 579.982 20.3135C577.705 20.6498 575.934 22.5837 574.711 26.0731L574.289 25.8208C575.428 22.2053 577.115 20.0613 579.434 19.4307C581.753 18.8 583.904 19.0103 585.886 20.1033C587.868 21.1964 589.09 22.7519 589.428 24.7698C589.765 26.7877 589.639 28.5534 588.964 30.0669C588.542 30.9918 587.91 32.0008 587.024 33.0518L587.066 33.0097Z" fill="black"/>
<path d="M233.486 9.42518H253.558L229.227 48.8592V62.8586C228.257 69.6272 225.474 74.0414 220.835 76.0593H230.196C233.57 76.4377 235.72 75.3867 236.69 72.9063L238.546 74.2936L229.69 86.6535H209.618L218.052 75.9753V52.2224L197.558 19.599C195.829 18.632 194.016 19.5569 192.119 22.3737L190.179 21.0704L197.685 12.368C200.932 7.07092 204.052 7.44928 207.13 13.4611L227.203 45.2016L242.088 21.1965H230.323C227.202 20.8602 225.094 21.5328 223.998 23.2145L222.986 21.9953L233.528 9.42518H233.486Z" fill="black"/>
<path d="M280.925 37.8023C283.624 40.7031 285.268 43.688 285.859 46.841L256.046 67.8612C258.744 74.2934 263.552 77.8669 270.467 78.5395C277.383 79.2542 283.202 75.2183 287.925 66.4739L289.232 68.0714C284.087 78.6656 278.859 84.7195 273.545 86.2329C268.232 87.7464 263.172 87.6623 258.449 85.9807C253.726 84.2991 249.973 81.4824 247.232 77.4465C244.491 73.4106 243.1 68.2817 243.1 62.0176C243.1 55.7536 244.66 50.3304 247.738 45.6639C250.817 40.9974 254.275 37.5921 258.027 35.448C261.78 33.2619 265.871 32.4211 270.256 32.8415C274.642 33.2619 278.184 34.9436 280.883 37.8443L280.925 37.8023ZM259.714 40.2407C257.184 40.6611 255.244 42.1325 253.853 44.6969C252.461 47.2614 251.871 50.3724 252.04 54.0299C252.208 57.6875 253.009 61.2609 254.443 64.8343L273.798 51.1712C271.943 45.8741 269.75 42.637 267.262 41.4598C264.774 40.2827 262.244 39.9043 259.714 40.2827V40.2407Z" fill="black"/>
<path d="M335.28 35.7004L329.123 44.9493H315.756V64.7504C315.756 71.4348 318.286 75.6388 323.304 77.3204C328.322 79.0021 332.497 77.5727 335.828 73.0323L337.852 69.7111L339.876 70.4679C338.358 74.2515 336.629 77.4466 334.689 80.0951C332.75 82.7016 329.756 84.6775 325.75 86.0228C321.744 87.3681 318.286 87.3261 315.334 85.8547C312.382 84.3833 310.021 82.2812 308.166 79.5486C306.31 76.816 305.467 72.9482 305.551 67.9034V44.7391H297.666L292.057 49.5317L290.244 47.808C300.955 39.2738 309.388 28.5115 315.629 15.563V34.229H334.9C335.406 33.5563 335.954 32.7575 336.545 31.7486C337.557 29.9829 337.852 28.1331 337.472 26.2413C337.093 24.3494 336.039 22.9201 334.352 22.0372C332.665 21.1964 330.726 21.0283 328.448 21.6589C326.214 22.2474 324.653 24.3494 323.852 27.9649L323.388 27.7968C324.147 24.0552 325.623 21.7009 327.816 20.818C330.051 19.9352 332.201 19.8932 334.31 20.776C336.418 21.6168 337.768 23.0462 338.358 25.0221C338.948 26.998 338.991 28.7217 338.527 30.2772C338.021 31.8747 336.924 33.6824 335.238 35.7424L335.28 35.7004Z" fill="black"/>
<path d="M108.499 33.1357C112.378 33.6402 116.3 35.49 120.264 38.6431C124.228 41.7961 126.716 46.1263 127.728 51.6336C128.74 57.1409 128.571 61.8074 127.264 65.633C125.957 69.4587 124.101 72.7799 121.698 75.5966C119.294 78.4133 115.963 81.23 111.662 84.0047C107.36 86.8214 102.722 87.7884 97.746 86.9896C92.728 86.1488 88.3846 83.7104 84.6317 79.6746C80.8787 75.6387 78.6016 71.2665 77.7582 66.6C76.9149 61.9335 77.1679 57.6874 78.4751 53.9037C79.7823 50.0781 82.3967 46.1263 86.3606 42.0483C90.2822 37.9284 94.0352 35.3219 97.493 34.1447C100.951 32.9676 104.662 32.6733 108.541 33.1778L108.499 33.1357ZM94.0773 41.7961C90.5774 42.8891 88.1316 45.832 86.6979 50.5825C85.2642 55.3331 86.4871 60.8404 90.4509 67.0624C94.3725 73.2844 98.8002 77.026 103.692 78.2872C108.583 79.5484 112.21 79.3803 114.571 77.7827C116.933 76.1852 118.366 73.3685 118.788 69.2906C119.21 65.2547 118.198 60.2098 115.71 54.198C113.222 48.1862 109.848 44.3185 105.631 42.6369C101.415 40.9553 97.5351 40.661 94.0773 41.754V41.7961Z" fill="black"/>
<path d="M175.884 35.7004L169.727 44.9493H156.36V64.7504C156.36 71.4348 158.89 75.6388 163.908 77.3204C168.926 79.0021 173.101 77.5727 176.432 73.0323L178.456 69.7111L180.48 70.4679C178.962 74.2515 177.233 77.4466 175.293 80.0951C173.354 82.7016 170.36 84.6775 166.354 86.0228C162.348 87.3681 158.89 87.3261 155.938 85.8547C152.986 84.3833 150.625 82.2812 148.77 79.5486C146.914 76.816 146.071 72.9482 146.155 67.9034V44.7391H138.27L132.661 49.5317L130.848 47.808C141.559 39.2738 149.992 28.5115 156.233 15.563V34.229H175.504C176.01 33.5563 176.558 32.7575 177.149 31.7486C178.161 29.9829 178.456 28.1331 178.076 26.2413C177.697 24.3494 176.643 22.9201 174.956 22.0372C173.269 21.1964 171.33 21.0283 169.052 21.6589C166.818 22.2474 165.257 24.3494 164.456 27.9649L163.992 27.7968C164.751 24.0552 166.227 21.7009 168.42 20.818C170.655 19.9352 172.805 19.8932 174.914 20.776C177.022 21.6168 178.372 23.0462 178.962 25.0221C179.552 26.998 179.595 28.7217 179.131 30.2772C178.625 31.8747 177.528 33.6824 175.842 35.7424L175.884 35.7004Z" fill="black"/>
<path d="M56.632 76.2693C59.3729 73.7469 61.1018 69.7531 61.7765 64.2878V24.9379L71.6438 15.0584H50.1802L41.4514 25.6106L42.8851 26.7036C43.4755 25.4844 44.9092 24.98 47.2706 25.1481H58.5717C55.5777 27.6706 53.8067 31.1179 53.2163 35.364V64.1617L52.4995 69.9212L22.3492 22.3314L28.2106 15.0164H17.7528L8.68666 0.764648L1.56023 5.26298L8.47582 16.1935L0 25.7367L14.4637 25.6526L15.0541 26.6195C12.8191 29.184 11.3433 32.7995 10.7107 37.6341V76.942L0.885533 86.8215H22.3492L31.078 76.2693L29.6443 75.1763C29.0539 76.3955 27.6202 76.8999 25.2588 76.7318H13.9577C16.9516 74.2094 18.7227 70.762 19.3131 66.516V37.7182L19.7347 34.1027L49.1682 80.6836L44.2345 86.8635H53.0898L64.7283 105.235L71.8547 100.737L63.0415 86.8215L72.445 76.1432L56.5476 76.2273L56.632 76.2693Z" fill="black"/>
<path d="M427.08 76.1432L411.183 76.2273C413.923 73.7049 415.652 69.711 416.327 64.2458V24.9379L426.194 15.0584H404.731L396.002 25.6106L397.436 26.7036C398.026 25.4844 399.46 24.98 401.821 25.1481H413.122C410.128 27.6706 408.357 31.1179 407.767 35.364V64.1617L407.05 69.9212L376.942 22.3314L382.803 15.0164H372.346L363.322 0.764648L356.195 5.26298L363.111 16.1935L354.635 25.7787L369.099 25.6947L369.689 26.6616C367.454 29.2261 365.978 32.8415 365.346 37.6762V76.984L355.478 86.8635H376.942L385.671 76.3114L384.237 75.2183C383.647 76.4375 382.213 76.942 379.852 76.7738H368.55C371.544 74.2514 373.315 70.8041 373.906 66.558V37.7603L374.327 34.1448L403.761 80.7256L398.827 86.9056H407.64L419.279 105.277L426.405 100.779L417.592 86.8635L426.996 76.1853L427.08 76.1432Z" fill="black"/>
</g>
<defs>
<clipPath id="clip0_2_46">
<rect width="592" height="104.471" fill="white" transform="translate(0 0.764648)"/>
</clipPath>
</defs>
</svg>
